<svg width="56" height="65" viewBox="0 0 56 65" fill="none" xmlns="http://www.w3.org/2000/svg">
<path d="M54.9073 15.7824L51.3255 9.64889V1.72453C51.3255 1.2822 51.1218 0.864297 50.773 0.592133C50.4241 0.319809 49.969 0.223554 49.5404 0.330664L32.1573 4.67683C32.0226 4.635 25.8964 4.71578 23.2803 4.67683L5.89756 0.330664C5.46817 0.223554 5.01355 0.319809 4.66493 0.592133C4.31614 0.864297 4.11246 1.28204 4.11246 1.72453V9.64777L0.529949 15.7825C0.365214 16.0646 0.301523 16.3942 0.349411 16.7172L6.96052 61.3958C7.06476 62.1004 7.66942 62.6222 8.38168 62.6222H18.5175C19.311 62.6222 19.9541 61.9791 19.9541 61.1856C19.9541 60.392 19.311 59.7489 18.5175 59.7489H9.62134L3.26564 16.7957L5.64184 12.7267L16.1271 20.6422C16.7402 21.1053 17.6089 21.0039 18.099 20.4124L21.0964 16.7946L22.1833 17.9389L17.0307 52.8482C16.9717 53.2483 17.0839 53.6547 17.3401 53.9677L25.3701 63.7841C25.6429 64.1177 26.0513 64.3112 26.4821 64.3112H28.9568C29.3878 64.3112 29.7959 64.1177 30.0687 63.7841L38.0986 53.9677C38.3547 53.6547 38.467 53.2483 38.408 52.8482L33.2551 17.9389L34.3418 16.7947L37.3394 20.4124C37.8292 21.0038 38.6982 21.1053 39.3113 20.6422L49.7961 12.727L52.1723 16.7959L50.7499 26.4091H40.6116C40.5436 26.408 39.8775 26.4118 39.4476 26.9611C39.0125 27.517 39.1759 28.1611 39.1946 28.2287L40.5918 33.7668C40.8552 34.7855 41.6401 34.8786 42.0223 34.8814H49.4961L45.8159 59.7489H36.9204C36.1269 59.7489 35.4838 60.392 35.4838 61.1856C35.4838 61.9791 36.1269 62.6222 36.9204 62.6222H47.0556C47.7679 62.6222 48.3725 62.1004 48.4768 61.3958L55.0879 16.7172C55.1358 16.3942 55.0721 16.0645 54.9073 15.7824ZM19.7321 13.9374L16.7624 17.5218L6.98574 10.141V3.56455L21.8207 7.27348L19.7321 13.9374ZM24.7653 7.48578H30.6721L32.7929 14.2528L31.1143 16.0201H24.3235L22.6445 14.252L24.7653 7.48578ZM35.4724 52.6398L28.2757 61.4378H27.1627L19.9658 52.6398L24.9466 18.8934H26.2822V24.7716C26.2822 25.5651 26.9254 26.2083 27.7189 26.2083C28.5124 26.2083 29.1555 25.5651 29.1555 24.7716V18.8934H30.4911L35.4724 52.6398ZM48.4522 10.141L38.6755 17.5217L35.7053 13.9373L33.6168 7.27348L48.4522 3.56455V10.141ZM49.9208 32.0083H43.1111L42.4232 29.2824H50.3241L49.9208 32.0083Z" fill="url(#paint0_linear_6_3)"/>
<defs>
<linearGradient id="paint0_linear_6_3" x1="17.3404" y1="64.0699" x2="25.6578" y2="-0.765445" gradientUnits="userSpaceOnUse">
<stop stop-color="#188DC1"/>
<stop offset="1" stop-color="#06BFE7"/>
</linearGradient>
</defs>
</svg>
