<svg width="90" height="22" viewBox="0 0 90 22" fill="none" xmlns="http://www.w3.org/2000/svg">
<path d="M8.39205 10.993H5.73499L10.3426 6.38444V0.832031L0.181641 10.993H2.83893L12.9671 21.1215V15.5697L8.39205 10.993Z" fill="white"/>
<path d="M15.0992 8.16843H17.0236L13.6858 11.5073V15.5295L21.0454 8.16785H19.1211L11.785 0.831543V4.85371L15.0992 8.16843Z" fill="white"/>
<path d="M26.3296 1.04077H28.5048V5.39831L32.5901 1.04077H35.4465L31.1063 5.39161L35.6688 11.6171H32.825L29.5669 6.99965L28.5048 8.08032V11.6173H26.3296V1.04077Z" fill="white"/>
<path d="M41.8386 3.95411C42.3905 4.20381 42.8595 4.60595 43.1906 5.11322C43.5183 5.59734 43.7317 6.14967 43.8145 6.72841C43.8761 7.24381 43.898 7.76317 43.8802 8.28193H38.1841C38.2165 9.06852 38.4891 9.61579 39.0026 9.93221C39.3424 10.1371 39.7341 10.2397 40.1307 10.2276C40.4502 10.2524 40.7698 10.1799 41.0473 10.0195C41.3248 9.85918 41.5472 9.61855 41.6853 9.32931H43.7734C43.6791 9.86994 43.4136 10.366 43.016 10.7443C42.315 11.5041 41.3334 11.8839 40.0712 11.8839C39.0681 11.8968 38.0926 11.5552 37.3166 10.9195C36.5203 10.2789 36.1224 9.23523 36.1229 7.78852C36.1229 6.43672 36.4825 5.39731 37.2017 4.67031C37.569 4.30868 38.0065 4.02612 38.4872 3.84003C38.9679 3.65393 39.4816 3.56827 39.9966 3.5883C40.6294 3.57872 41.2571 3.70308 41.8384 3.95322M38.779 5.72216C38.4732 6.05704 38.2821 6.48067 38.2335 6.93154H41.7568C41.7553 6.69896 41.706 6.46917 41.6121 6.25639C41.5182 6.04361 41.3817 5.85235 41.2109 5.69445C40.8729 5.408 40.4403 5.25789 39.9975 5.27344C39.7743 5.25953 39.5506 5.29223 39.3408 5.36949C39.1309 5.44674 38.9394 5.56685 38.7785 5.72216" fill="white"/>
<path d="M45.2225 13.1176L45.4802 13.133C45.6727 13.1435 45.8659 13.1356 46.0569 13.1093C46.22 13.0935 46.3767 13.0376 46.513 12.9467C46.6703 12.8111 46.7864 12.6341 46.8482 12.4358C46.9232 12.2886 46.9678 12.1278 46.9796 11.963L44.1074 3.79761H46.3816L48.0893 9.56833L49.7045 3.79761H51.8793L49.1977 11.4881C48.6784 12.9701 48.2687 13.89 47.9687 14.2479C47.6676 14.6054 47.063 14.7824 46.1586 14.7824C45.9767 14.7824 45.8281 14.7811 45.719 14.7797C45.61 14.7784 45.4422 14.767 45.2234 14.7529V13.1176H45.2225Z" fill="white"/>
<path d="M52.4263 4.74238V4.00607H53.5586V2.80093C53.5315 2.29423 53.6594 1.79129 53.9253 1.35914C54.1711 1.00763 54.5875 0.831543 55.1738 0.831543C55.311 0.831543 55.4397 0.835567 55.5573 0.844282C55.6748 0.852997 55.7921 0.872214 55.9101 0.888974V1.70059C55.7375 1.65447 55.5599 1.62963 55.3812 1.62663C55.1967 1.61553 55.0129 1.65831 54.8523 1.74976C54.7277 1.82908 54.63 1.94432 54.5723 2.08026C54.5109 2.22815 54.474 2.38508 54.4632 2.54484C54.4464 2.71579 54.4409 2.89054 54.4409 3.06417V4.00585H55.9106V4.74194H54.4409V11.6168H53.5593V4.74194H52.4266L52.4263 4.74238Z" fill="white"/>
<path d="M58.2022 11.6172H57.3206V4.00606H58.2022V5.43176H58.2315C58.4044 4.91753 58.7362 4.47152 59.1789 4.15802C59.6479 3.89943 60.1794 3.77568 60.7144 3.80047V4.75757C60.2904 4.73126 59.8666 4.81106 59.4813 4.98975C59.1707 5.14613 58.9049 5.37879 58.7088 5.66595C58.5085 5.97105 58.3732 6.31411 58.3112 6.67377C58.2374 7.07354 58.2009 7.47931 58.2022 7.88584V11.6172Z" fill="white"/>
<path d="M65.6661 7.17896C65.8326 7.16064 66.0315 7.1298 66.2608 7.0936C66.4556 7.0626 66.646 7.00797 66.8277 6.93092C66.8979 6.8995 66.9594 6.8515 67.007 6.79105C67.0546 6.7306 67.0867 6.65951 67.1008 6.58388C67.1321 6.43614 67.149 6.28572 67.1513 6.13471C67.1585 5.93011 67.1237 5.72619 67.0491 5.53553C66.9745 5.34486 66.8617 5.1715 66.7175 5.02611C66.4292 4.73904 65.9417 4.59527 65.2547 4.59483C64.9733 4.59219 64.6924 4.61892 64.4165 4.6746C64.1776 4.72175 63.9507 4.81635 63.749 4.95281C63.5522 5.09001 63.3906 5.27188 63.2775 5.48354C63.1454 5.74194 63.0637 6.02316 63.0368 6.31215H62.1412C62.1562 5.90949 62.2616 5.51535 62.4494 5.15885C62.6156 4.85108 62.8489 4.58462 63.132 4.37918C63.4254 4.17344 63.755 4.02492 64.1034 3.94142C64.485 3.84514 64.8773 3.79776 65.2708 3.80041C65.6348 3.79773 65.9978 3.83999 66.3515 3.92622C66.6684 3.9993 66.968 4.13392 67.233 4.32242C67.4886 4.51025 67.6912 4.76097 67.8212 5.05025C67.9729 5.40163 68.0455 5.7821 68.0337 6.16466V10.3099C68.0337 10.6529 68.0956 10.8726 68.2187 10.9664C68.3419 11.0603 68.5855 11.0348 68.9606 10.8976V11.5875C68.8891 11.6071 68.7897 11.6366 68.6583 11.6768C68.5322 11.7153 68.4011 11.7351 68.2692 11.7356C68.1355 11.7357 68.0021 11.7207 67.8717 11.6909C67.7431 11.679 67.6207 11.6304 67.5189 11.551C67.43 11.4795 67.3574 11.3898 67.3059 11.288C67.2521 11.1818 67.2149 11.068 67.1955 10.9506C67.1761 10.8209 67.1663 10.69 67.1662 10.5588C66.8113 10.9588 66.3759 11.2793 65.8885 11.4992C65.3985 11.7176 64.8672 11.8279 64.3307 11.8225C64.0046 11.8243 63.6799 11.7801 63.3662 11.6911C63.0701 11.609 62.793 11.4697 62.5504 11.2811C62.3015 11.0865 62.1025 10.8354 61.9698 10.5487C61.8372 10.262 61.7747 9.94781 61.7875 9.63214C61.7875 8.34157 62.6744 7.57792 64.4482 7.3412L65.6661 7.17896ZM67.1513 7.6212C66.7892 7.77537 66.4078 7.87942 66.0176 7.93047C65.6377 7.97829 65.2547 8.01583 64.8726 8.04667C64.3165 8.06196 63.7733 8.21804 63.2938 8.5003C63.1069 8.62847 62.9563 8.80285 62.8567 9.00648C62.7571 9.21011 62.7119 9.43605 62.7256 9.66231C62.7203 9.87445 62.7688 10.0845 62.8666 10.2728C62.9569 10.4391 63.0819 10.5839 63.2333 10.6974C63.3929 10.814 63.5727 10.9 63.7636 10.9513C63.9617 11.0041 64.1659 11.031 64.3709 11.031C64.719 11.0314 65.0658 10.9868 65.4024 10.8983C65.7199 10.8171 66.0203 10.6802 66.2898 10.4938C66.5491 10.3153 66.7633 10.079 66.9155 9.80354C67.0786 9.49863 67.1597 9.15659 67.1508 8.81091V7.62164L67.1513 7.6212Z" fill="white"/>
<path d="M71.1032 11.6175H70.2207V4.0063H71.1023V5.15267H71.1329C71.3445 4.72519 71.6835 4.37385 72.1032 4.14708C72.5265 3.91568 73.002 3.79666 73.4844 3.80138C73.7865 3.79554 74.0877 3.83471 74.3782 3.91759C74.6034 3.98645 74.815 4.09349 75.0039 4.23401C75.1712 4.36336 75.3155 4.51996 75.4308 4.69725C75.5459 4.87738 75.6415 5.06921 75.7161 5.26954C75.9378 4.80548 76.2938 4.41876 76.738 4.1596C77.1865 3.91587 77.6905 3.79267 78.2008 3.80205C78.6296 3.7822 79.0565 3.87065 79.4422 4.05926C79.7359 4.21584 79.982 4.44885 80.1543 4.73367C80.327 5.02895 80.4393 5.35556 80.4848 5.69457C80.5412 6.06433 80.5694 6.43785 80.5691 6.81189V11.6164H79.6844V6.35692C79.7109 5.89951 79.5897 5.44569 79.3387 5.06239C79.109 4.74954 78.681 4.59312 78.054 4.59312C77.7307 4.59378 77.4118 4.66702 77.1206 4.80742C76.8101 4.959 76.5412 5.18387 76.3371 5.46261C76.2331 5.59728 76.1509 5.7475 76.0936 5.90775C76.0287 6.08257 75.9764 6.2618 75.9371 6.44407C75.8986 6.62777 75.8719 6.81379 75.8574 7.00094C75.8406 7.19155 75.835 7.35848 75.835 7.51758V11.617H74.9534V6.35736C74.9778 5.90037 74.8573 5.44735 74.6091 5.06284C74.3769 4.74999 73.9483 4.59356 73.3213 4.59356C72.9863 4.5932 72.656 4.67173 72.3571 4.82279C72.0581 4.97385 71.799 5.1932 71.6006 5.46306C71.4978 5.59808 71.4166 5.74825 71.3599 5.9082C71.2945 6.08282 71.2422 6.26209 71.2035 6.44451C71.1647 6.62814 71.1385 6.81419 71.1251 7.00138C71.1085 7.192 71.0996 7.35893 71.0996 7.51803V11.6175H71.1032Z" fill="white"/>
<path d="M83.1258 8.01585C83.123 8.41213 83.1778 8.80671 83.2885 9.18724C83.3843 9.5326 83.5459 9.85621 83.7644 10.1403C83.9799 10.4137 84.254 10.6351 84.5664 10.7884C84.982 10.9786 85.4395 11.059 85.895 11.0218C86.3505 10.9846 86.7889 10.831 87.168 10.5758C87.587 10.2565 87.878 9.79781 87.9884 9.28266H88.9738C88.8712 9.63298 88.7287 9.97038 88.5492 10.2882C88.3751 10.5924 88.152 10.8657 87.8889 11.0972C87.6118 11.3325 87.2928 11.5134 86.9486 11.6304C86.541 11.7664 86.1132 11.8317 85.6835 11.8237C85.1437 11.8373 84.6074 11.7317 84.113 11.5144C83.689 11.3222 83.316 11.0331 83.0241 10.6704C82.7302 10.2958 82.5155 9.86541 82.393 9.40534C82.252 8.896 82.1822 8.36959 82.1857 7.8411C82.1825 7.30795 82.2647 6.77774 82.4292 6.2706C82.5771 5.8027 82.811 5.36654 83.1191 4.98456C83.4164 4.61889 83.7901 4.32272 84.214 4.11685C84.6735 3.901 85.1762 3.79278 85.6838 3.80043C86.734 3.80043 87.5535 4.15797 88.1526 4.87931C88.7517 5.60065 89.044 6.64467 89.0342 8.01607H83.1258V8.01585ZM88.0916 7.28355C88.0946 6.92691 88.0427 6.57193 87.9378 6.23104C87.8443 5.9189 87.6893 5.62865 87.4818 5.37741C87.2741 5.13458 87.0161 4.93977 86.7258 4.80646C86.3974 4.66041 86.0409 4.58832 85.6815 4.59529C85.3239 4.58766 84.9693 4.66293 84.6456 4.81518C84.3538 4.95702 84.0938 5.15649 83.8813 5.40154C83.6658 5.65592 83.4941 5.94441 83.3734 6.25518C83.2458 6.58538 83.1625 6.93103 83.1258 7.28311H88.0916V7.28355Z" fill="white"/>
<path d="M29.8567 20.4387L30.8417 17.2644H31.2844L30.0679 21.0186H29.6047L28.7861 17.8666H28.772L27.939 21.0186H27.4172L26.2753 17.2644H26.7077L27.6775 20.4651L28.547 17.2644H29.0326L29.8567 20.4387Z" fill="white"/>
<path d="M32.1845 19.2422C32.1827 19.4353 32.2091 19.6277 32.263 19.8131C32.3097 19.9847 32.3895 20.1454 32.4978 20.2864C32.603 20.4219 32.7381 20.5312 32.8927 20.6055C33.0647 20.6882 33.2536 20.7295 33.4444 20.726C33.7058 20.733 33.9623 20.6546 34.1749 20.5025C34.3814 20.3452 34.5243 20.1187 34.5772 19.8645H35.0641C35.0131 20.0378 34.9423 20.2046 34.8529 20.3615C34.7678 20.5126 34.6574 20.648 34.5264 20.7617C34.391 20.8786 34.2341 20.968 34.0645 21.0247C33.8641 21.0907 33.6541 21.1229 33.4431 21.1199C33.1755 21.1265 32.9097 21.074 32.6648 20.9662C32.4569 20.8715 32.2739 20.7297 32.1302 20.5521C31.9863 20.3667 31.8807 20.1544 31.8196 19.9278C31.7501 19.6767 31.7162 19.4171 31.7188 19.1566C31.7169 18.8936 31.7566 18.632 31.8364 18.3814C31.9113 18.1517 32.0269 17.9373 32.1778 17.7485C32.3246 17.5682 32.509 17.422 32.7182 17.3204C32.9444 17.2126 33.1927 17.159 33.4433 17.164C33.6732 17.1533 33.9024 17.1959 34.1131 17.2884C34.3238 17.3808 34.5103 17.5207 34.6581 17.6971C34.9521 18.0513 35.0972 18.5672 35.0931 19.2449H32.1845V19.2422ZM34.6306 18.8784C34.6305 18.7036 34.6051 18.5297 34.5553 18.3622C34.5101 18.2082 34.4329 18.0656 34.3287 17.9436C34.2279 17.8213 34.1005 17.7237 33.9562 17.6583C33.7943 17.5884 33.6198 17.5526 33.4436 17.5531C33.2673 17.5536 33.093 17.5903 32.9316 17.6609C32.7884 17.7318 32.6608 17.8306 32.5564 17.9514C32.4498 18.0766 32.3646 18.2184 32.3043 18.3713C32.241 18.5338 32.2005 18.7043 32.1839 18.8779H34.6303L34.6306 18.8784Z" fill="white"/>
<path d="M36.4248 21.0176H35.9893V15.8013H36.4248V17.8656C36.5608 17.637 36.7615 17.4539 37.0015 17.3394C37.2396 17.223 37.5008 17.1619 37.7658 17.1606C38.0229 17.1541 38.2776 17.2108 38.5077 17.3257C38.7121 17.4287 38.8902 17.577 39.0284 17.7595C39.1716 17.9492 39.2766 18.165 39.3376 18.3948C39.4055 18.6395 39.439 18.8924 39.4371 19.1463C39.4386 19.4077 39.4076 19.6682 39.3446 19.9219C39.2865 20.1487 39.1842 20.3618 39.0436 20.549C38.9033 20.7261 38.7236 20.8679 38.5186 20.9631C38.275 21.0717 38.0101 21.1243 37.7434 21.1168C37.6185 21.1172 37.4941 21.0999 37.3741 21.0652C37.2469 21.0323 37.1246 20.9829 37.0103 20.9184C36.8903 20.8573 36.7799 20.7791 36.6824 20.6862C36.5832 20.5896 36.5009 20.477 36.4389 20.3532H36.4248V21.0176ZM36.4248 19.1255C36.4237 19.3397 36.4519 19.5531 36.5086 19.7597C36.5577 19.9417 36.6392 20.1133 36.7493 20.2663C36.8547 20.4082 36.9916 20.5237 37.1493 20.6037C37.3172 20.688 37.5031 20.7302 37.6909 20.7269C37.865 20.7289 38.0377 20.6962 38.1989 20.6305C38.3527 20.5643 38.491 20.4666 38.6047 20.3436C38.725 20.2093 38.8172 20.0521 38.8755 19.8815C38.9433 19.68 38.9758 19.4683 38.9718 19.2558C38.9821 19.0336 38.9632 18.811 38.9157 18.5937C38.8717 18.4008 38.7925 18.2176 38.6822 18.0533C38.5783 17.9001 38.4379 17.7751 38.2737 17.6895C38.0938 17.5956 37.893 17.5489 37.69 17.5537C37.5054 17.5512 37.3231 17.5951 37.1598 17.6813C37.0041 17.7649 36.8682 17.8808 36.7611 18.0214C36.6481 18.1714 36.5631 18.3406 36.5104 18.5208C36.453 18.7173 36.424 18.9209 36.4241 19.1255" fill="white"/>
<path d="M42.6308 19.8435C42.6655 20.108 42.7954 20.3507 42.9961 20.5262C43.2203 20.6732 43.4859 20.7437 43.7535 20.7273C43.8929 20.7303 44.0318 20.7105 44.1648 20.6686C44.2704 20.6362 44.3685 20.583 44.4531 20.5121C44.5251 20.452 44.5824 20.3764 44.6209 20.2909C44.6609 20.21 44.681 20.1208 44.6797 20.0306C44.6853 19.9533 44.6722 19.8758 44.6416 19.8046C44.6109 19.7335 44.5636 19.6707 44.5036 19.6216C44.3695 19.5239 44.2178 19.4531 44.0567 19.4132C43.8664 19.3595 43.6734 19.3157 43.4786 19.2818C43.2799 19.2498 43.0856 19.1952 42.8994 19.1191C42.7288 19.0517 42.5763 18.9453 42.4542 18.8085C42.3275 18.6457 42.2647 18.4421 42.2777 18.2362C42.2731 18.0901 42.3015 17.9449 42.3609 17.8113C42.4203 17.6778 42.5091 17.5594 42.6207 17.465C42.8965 17.2476 43.243 17.1399 43.5935 17.1627C43.9434 17.1472 44.2892 17.2428 44.5816 17.4357C44.7182 17.5463 44.8298 17.6845 44.9091 17.8412C44.9885 17.998 45.0337 18.1697 45.0419 18.3452H44.601C44.5949 18.2247 44.5621 18.1071 44.5049 18.0009C44.4478 17.8946 44.3677 17.8024 44.2705 17.7309C44.065 17.6051 43.8269 17.5429 43.5861 17.5521C43.3618 17.5371 43.1393 17.6003 42.9564 17.7309C42.8864 17.7864 42.8302 17.8573 42.7924 17.9382C42.7545 18.019 42.7359 18.1076 42.738 18.1968C42.7343 18.2715 42.7486 18.3459 42.7797 18.4139C42.8109 18.4818 42.8579 18.5413 42.9168 18.5872C43.0531 18.6822 43.2032 18.7554 43.3619 18.8042C43.553 18.863 43.7469 18.912 43.943 18.951C44.142 18.9919 44.3362 19.0538 44.5222 19.1358C44.6926 19.2087 44.8447 19.3187 44.9673 19.4578C45.0933 19.6185 45.1561 19.8198 45.1438 20.0237C45.1475 20.1893 45.1075 20.3531 45.0276 20.4983C44.9505 20.6362 44.8421 20.7541 44.7112 20.8427C44.5633 20.9394 44.3993 21.009 44.227 21.0482C44.027 21.0959 43.822 21.1194 43.6165 21.1184C43.4153 21.1214 43.2153 21.0883 43.0259 21.0208C42.8633 20.9601 42.7147 20.8672 42.589 20.7477C42.4685 20.6333 42.3723 20.4957 42.3063 20.3432C42.2371 20.1852 42.1972 20.0159 42.1885 19.8435H42.6308Z" fill="white"/>
<path d="M47.49 21.1191C47.2582 21.1157 47.0288 21.0712 46.8125 20.9877C46.6043 20.9077 46.4169 20.7819 46.2639 20.6197C46.0984 20.442 45.9707 20.2326 45.8887 20.004C45.7932 19.7263 45.7468 19.434 45.7515 19.1403C45.7497 18.8798 45.7859 18.6205 45.8592 18.3705C45.9264 18.1425 46.0376 17.93 46.1866 17.7448C46.3327 17.5636 46.5185 17.4184 46.7296 17.3202C46.9708 17.2167 47.2305 17.1633 47.4929 17.1633C47.7554 17.1633 48.0151 17.2167 48.2563 17.3202C48.4664 17.4178 48.652 17.5613 48.7993 17.7401C48.9481 17.9251 49.0576 18.1385 49.1213 18.3672C49.1933 18.6188 49.2291 18.8793 49.2277 19.141C49.231 19.4164 49.1894 19.6906 49.1046 19.9526C49.0291 20.1808 48.9104 20.3923 48.7548 20.5754C48.6024 20.7481 48.4141 20.8854 48.2031 20.9777C47.978 21.0749 47.735 21.1238 47.4898 21.1213M48.7649 19.1423C48.7648 18.9327 48.7408 18.7238 48.6934 18.5196C48.6493 18.3398 48.573 18.1695 48.4681 18.017C48.3662 17.8745 48.2313 17.7588 48.0751 17.6796C47.8926 17.5927 47.692 17.5505 47.49 17.5564C47.2874 17.5501 47.0866 17.597 46.9077 17.6923C46.7496 17.7769 46.6141 17.8983 46.5128 18.0463C46.4085 18.2003 46.3328 18.3719 46.2894 18.5529C46.2403 18.7454 46.2158 18.9434 46.2165 19.1421C46.213 19.3592 46.2413 19.5757 46.3005 19.7846C46.348 19.9663 46.4297 20.1373 46.5412 20.2885C46.6461 20.4263 46.7824 20.5372 46.9387 20.6118C47.1112 20.693 47.3 20.7332 47.4905 20.7294C47.6935 20.7356 47.8947 20.6888 48.0742 20.5935C48.2324 20.5076 48.3678 20.385 48.469 20.236C48.5724 20.0807 48.6485 19.9089 48.6943 19.728C48.7408 19.5365 48.7646 19.3401 48.7653 19.143" fill="white"/>
<path d="M50.524 15.8013H50.0889V21.0176H50.524V15.8013Z" fill="white"/>
<path d="M54.1745 17.2644H54.6089V21.0186H54.1752V20.4936C54.1137 20.5675 54.0482 20.638 53.9792 20.7048C53.9039 20.7797 53.8204 20.8458 53.7302 20.9019C53.628 20.9666 53.518 21.0183 53.4029 21.0556C53.2615 21.0998 53.114 21.121 52.966 21.1187C52.751 21.125 52.5369 21.0884 52.3363 21.011C52.177 20.9497 52.0359 20.8489 51.9262 20.7182C51.822 20.5897 51.7453 20.4412 51.701 20.2818C51.6549 20.1031 51.6324 19.9191 51.6339 19.7345V17.2639H52.0677V19.7245C52.0493 19.9921 52.13 20.257 52.2943 20.4691C52.3909 20.5628 52.5069 20.6344 52.634 20.6789C52.7611 20.7234 52.8963 20.7397 53.0303 20.7267C53.1972 20.7292 53.3624 20.6933 53.5133 20.6219C53.6539 20.5533 53.7764 20.4526 53.8708 20.3278C53.9719 20.1924 54.0486 20.0404 54.0974 19.8787C54.1504 19.693 54.1768 19.5008 54.1758 19.3077L54.1745 17.2644Z" fill="white"/>
<path d="M56.9769 21.0294C56.9222 21.0395 56.8551 21.0576 56.7671 21.0824C56.6721 21.1061 56.5745 21.1183 56.4766 21.1188C56.2959 21.1314 56.1174 21.0726 55.9796 20.955C55.9143 20.8734 55.8657 20.7797 55.8366 20.6793C55.8075 20.579 55.7985 20.4738 55.81 20.37V17.6267H55.2797V17.2643H55.81V16.2231H56.2451V17.2643H56.9479V17.6267H56.2451V20.199C56.2451 20.2884 56.2464 20.3686 56.252 20.4383C56.2534 20.496 56.2682 20.5526 56.2954 20.6035C56.3201 20.6475 56.3597 20.6813 56.4071 20.6987C56.4769 20.7202 56.5498 20.7296 56.6227 20.7266C56.6819 20.7267 56.7409 20.7219 56.7993 20.7125C56.858 20.7011 56.9179 20.6888 56.9754 20.6774V21.0294H56.9769Z" fill="white"/>
<path d="M57.7155 15.8013H58.1939V16.4475H57.7155V15.8013ZM57.7347 17.2641H58.1716V21.0183H57.7347V17.2641Z" fill="white"/>
<path d="M60.7705 21.1194C60.5391 21.1161 60.3101 21.0716 60.0943 20.988C59.8852 20.9081 59.6967 20.7823 59.5425 20.62C59.3779 20.4422 59.2511 20.2327 59.17 20.0044C59.0721 19.7272 59.0247 19.4346 59.0301 19.1407C59.0294 18.8802 59.0661 18.6209 59.1392 18.3708C59.2064 18.1429 59.3176 17.9303 59.4666 17.7451C59.6124 17.5637 59.7983 17.4183 60.0096 17.3206C60.2477 17.2115 60.5075 17.158 60.7694 17.1641C61.034 17.1574 61.2967 17.2109 61.5376 17.3206C61.7471 17.4192 61.9325 17.5625 62.0806 17.7405C62.2287 17.9255 62.3373 18.1389 62.3997 18.3675C62.4735 18.6188 62.5098 18.8795 62.5075 19.1413C62.5114 19.4168 62.4698 19.6911 62.3843 19.953C62.3084 20.1809 62.1897 20.3923 62.0346 20.5758C61.8823 20.7491 61.6934 20.8865 61.4815 20.978C61.2572 21.0753 61.0148 21.1243 60.7703 21.1217M62.044 19.1427C62.0446 18.933 62.0206 18.724 61.9725 18.5199C61.9279 18.3403 61.8516 18.1701 61.7472 18.0173C61.6454 17.8751 61.5109 17.7594 61.3551 17.6799C61.172 17.5932 60.9711 17.551 60.7687 17.5568C60.5656 17.5508 60.3645 17.5976 60.185 17.6926C60.0274 17.7779 59.8921 17.8992 59.7901 18.0466C59.6858 18.2007 59.6101 18.3723 59.5667 18.5532C59.5182 18.7459 59.4938 18.9438 59.4938 19.1425C59.4917 19.3595 59.5199 19.5757 59.5778 19.7849C59.625 19.9673 59.7078 20.1386 59.8214 20.2888C59.9254 20.4276 60.062 20.5386 60.219 20.6122C60.3907 20.6934 60.579 20.7337 60.7689 20.7297C60.9719 20.7356 61.173 20.6888 61.3526 20.5939C61.5111 20.5083 61.6466 20.3856 61.7475 20.2363C61.8503 20.0807 61.9264 19.909 61.9727 19.7284C62.0204 19.537 62.0444 19.3406 62.0442 19.1434" fill="white"/>
<path d="M63.7403 21.0182H63.3052V17.264H63.7403V17.7858C63.8998 17.6135 64.081 17.4625 64.2793 17.3366C64.4813 17.2151 64.7139 17.1539 64.9496 17.1601C65.1696 17.1593 65.3877 17.2006 65.5921 17.2819C65.7985 17.3661 65.9738 17.5121 66.094 17.6998C66.1823 17.8224 66.2382 17.9652 66.2567 18.1152C66.2753 18.2628 66.2838 18.4115 66.2822 18.5603V21.0184H65.8482V18.5693C65.869 18.2972 65.7895 18.027 65.6247 17.8095C65.526 17.7163 65.4085 17.6453 65.2801 17.6014C65.1516 17.5575 65.0152 17.5417 64.8801 17.555C64.7538 17.5538 64.6283 17.5751 64.5094 17.618C64.4019 17.6568 64.3005 17.711 64.2084 17.7789C64.1212 17.8445 64.0448 17.9233 63.9818 18.0124C63.9193 18.0955 63.8706 18.1882 63.8377 18.2868C63.7942 18.398 63.7674 18.5149 63.7579 18.6338C63.7467 18.7543 63.7415 18.8753 63.7425 18.9963V21.0191L63.7403 21.0182Z" fill="white"/>
<path d="M67.5852 19.8437C67.6187 20.1088 67.7493 20.3521 67.9519 20.5264C68.1745 20.6732 68.4387 20.7438 68.7048 20.7275C68.8452 20.7306 68.9852 20.7108 69.1193 20.6687C69.2241 20.6366 69.3212 20.5834 69.4047 20.5123C69.4774 20.4522 69.5358 20.3766 69.5756 20.2911C69.6149 20.21 69.635 20.1209 69.6344 20.0307C69.6397 19.9532 69.6262 19.8756 69.595 19.8044C69.5639 19.7332 69.5161 19.6706 69.4556 19.6218C69.3217 19.5237 69.1699 19.4529 69.0087 19.4133C68.8184 19.3595 68.6254 19.3157 68.4306 19.2819C68.2319 19.2502 68.0375 19.1956 67.8514 19.1192C67.6814 19.0515 67.5294 18.9452 67.4076 18.8086C67.2793 18.6465 67.2156 18.4426 67.2288 18.2363C67.2245 18.0903 67.2531 17.9452 67.3124 17.8117C67.3718 17.6783 67.4603 17.5598 67.5716 17.4652C67.8481 17.2481 68.1948 17.1405 68.5457 17.1628C68.8956 17.1476 69.2414 17.2432 69.5338 17.4359C69.6701 17.547 69.7814 17.6855 69.8605 17.8425C69.9396 17.9995 69.9848 18.1713 69.993 18.3469H69.5521C69.546 18.2265 69.5131 18.1089 69.456 18.0026C69.3988 17.8964 69.3188 17.8042 69.2216 17.7326C69.0172 17.6071 68.7801 17.5448 68.5403 17.5539C68.3151 17.5389 68.0916 17.602 67.9075 17.7326C67.8373 17.7879 67.781 17.8588 67.743 17.9397C67.7051 18.0206 67.6867 18.1093 67.6891 18.1986C67.6855 18.2732 67.6998 18.3476 67.7309 18.4155C67.762 18.4835 67.809 18.543 67.8679 18.589C68.0037 18.6847 68.154 18.7579 68.313 18.8059C68.504 18.8649 68.698 18.9139 68.894 18.9528C69.0926 18.9939 69.2863 19.0558 69.4719 19.1376C69.6426 19.2101 69.7947 19.3202 69.9171 19.4596C70.044 19.6199 70.1076 19.8212 70.0958 20.0254C70.098 20.1909 70.0581 20.3542 69.9796 20.5C69.9014 20.6376 69.7927 20.7554 69.6619 20.8444C69.5146 20.9414 69.351 21.011 69.179 21.05C68.9781 21.0976 68.7724 21.1211 68.566 21.1201C68.3653 21.1229 68.1656 21.0898 67.9765 21.0225C67.8142 20.9621 67.666 20.8692 67.541 20.7494C67.4196 20.6354 67.323 20.4978 67.2569 20.3449C67.1882 20.1868 67.1489 20.0175 67.1407 19.8453H67.583L67.5852 19.8437Z" fill="white"/>
</svg>
