<svg width="60" height="61" viewBox="0 0 60 61" fill="none" xmlns="http://www.w3.org/2000/svg">
<path d="M53.1455 0.839111C49.5833 0.839111 46.6863 3.73607 46.6863 7.29833C46.6863 8.41254 46.9694 9.46109 47.4679 10.3772L36.8866 20.9585C35.4279 19.8227 33.6021 19.1402 31.6148 19.1402C29.6275 19.1402 27.8017 19.8227 26.3419 20.9574L18.086 12.7015C18.4649 12.0609 18.6964 11.3246 18.6964 10.5279C18.6964 8.1531 16.7651 6.22179 14.3902 6.22179C12.0154 6.22179 10.0841 8.1531 10.0841 10.5279C10.0841 12.9028 12.0154 14.8341 14.3902 14.8341C15.1869 14.8341 15.9232 14.6026 16.5638 14.2237L24.8197 22.4796C23.685 23.9394 23.0025 25.7652 23.0025 27.7525C23.0025 29.7398 23.685 31.5656 24.8197 33.0243L11.1865 46.6586C10.0389 45.6176 8.52203 44.9771 6.85448 44.9771C3.29222 44.9771 0.395264 47.874 0.395264 51.4363C0.395264 54.9986 3.29222 57.8955 6.85448 57.8955C10.4167 57.8955 13.3137 54.9986 13.3137 51.4363C13.3137 50.3221 13.0306 49.2735 12.5321 48.3574L26.343 34.5465C27.5337 35.4724 28.9698 36.0924 30.5393 36.2894V47.227C27.4895 47.7416 25.1567 50.3942 25.1567 53.5894C25.1567 57.1516 28.0536 60.0486 31.6159 60.0486C35.1781 60.0486 38.0751 57.1516 38.0751 53.5894C38.0751 50.3953 35.7422 47.7427 32.6924 47.227V36.2894C34.262 36.0924 35.6981 35.4724 36.8888 34.5465L45.1447 42.8025C44.7647 43.4441 44.5332 44.1804 44.5332 44.9771C44.5332 47.3519 46.4645 49.2832 48.8394 49.2832C51.2142 49.2832 53.1455 47.3519 53.1455 44.9771C53.1455 42.6022 51.2142 40.6709 48.8394 40.6709C48.0427 40.6709 47.3064 40.9024 46.6659 41.2813L38.4099 33.0254C39.5446 31.5656 40.2271 29.7398 40.2271 27.7525C40.2271 25.7652 39.5446 23.9394 38.4099 22.4807L48.8146 12.076C49.9611 13.117 51.478 13.7575 53.1455 13.7575C56.7078 13.7575 59.6047 10.8606 59.6047 7.29833C59.6047 3.73607 56.7078 0.839111 53.1455 0.839111ZM12.2372 10.5279C12.2372 9.34052 13.2028 8.37486 14.3902 8.37486C15.5776 8.37486 16.5433 9.34052 16.5433 10.5279C16.5433 11.7154 15.5776 12.681 14.3902 12.681C13.2028 12.681 12.2372 11.7154 12.2372 10.5279ZM6.85448 55.7424C4.47964 55.7424 2.54834 53.8111 2.54834 51.4363C2.54834 49.0615 4.47964 47.1302 6.85448 47.1302C9.22932 47.1302 11.1606 49.0615 11.1606 51.4363C11.1606 53.8111 9.22932 55.7424 6.85448 55.7424ZM35.9209 53.5894C35.9209 55.9642 33.9896 57.8955 31.6148 57.8955C29.24 57.8955 27.3087 55.9642 27.3087 53.5894C27.3087 51.2145 29.24 49.2832 31.6148 49.2832C33.9896 49.2832 35.9209 51.2145 35.9209 53.5894ZM31.6148 34.2117C28.0525 34.2117 25.1556 31.3148 25.1556 27.7525C25.1556 24.1903 28.0525 21.2933 31.6148 21.2933C35.1771 21.2933 38.074 24.1903 38.074 27.7525C38.074 31.3148 35.1771 34.2117 31.6148 34.2117ZM50.9925 44.9771C50.9925 46.1645 50.0268 47.1302 48.8394 47.1302C47.652 47.1302 46.6863 46.1645 46.6863 44.9771C46.6863 43.7897 47.652 42.824 48.8394 42.824C50.0268 42.824 50.9925 43.7897 50.9925 44.9771ZM53.1455 11.6045C50.7707 11.6045 48.8394 9.67316 48.8394 7.29833C48.8394 4.92349 50.7707 2.99218 53.1455 2.99218C55.5204 2.99218 57.4517 4.92349 57.4517 7.29833C57.4517 9.67316 55.5204 11.6045 53.1455 11.6045Z" fill="url(#paint0_linear_4_1170)"/>
<defs>
<linearGradient id="paint0_linear_4_1170" x1="18.7805" y1="59.8254" x2="25.3893" y2="-0.396463" gradientUnits="userSpaceOnUse">
<stop stop-color="#188DC1"/>
<stop offset="1" stop-color="#06BFE7"/>
</linearGradient>
</defs>
</svg>
