<svg width="67" height="66" viewBox="0 0 67 66" fill="none" xmlns="http://www.w3.org/2000/svg">
<path d="M64.9836 0.602539H1.65158C0.910461 0.602539 0.317566 1.19543 0.317566 1.93655C0.317566 2.67767 0.910461 3.27057 1.65158 3.27057H4.11748V41.9435C4.11748 43.8974 5.70752 45.4874 7.66138 45.4874H59.2163C61.1702 45.4874 62.7602 43.8974 62.7602 41.9435V3.27057H64.9836C65.7247 3.27057 66.3176 2.67767 66.3176 1.93655C66.3176 1.19543 65.7247 0.602539 64.9836 0.602539ZM60.0922 41.9435C60.0922 42.4286 59.7014 42.8194 59.2163 42.8194H7.66138C7.17628 42.8194 6.78551 42.4286 6.78551 41.9435V3.27057H60.0922V41.9435Z" fill="url(#paint0_linear_4_1345)"/>
<path d="M35.4197 54.3V50.837H40.0685C40.8096 50.837 41.4025 50.2441 41.4025 49.503C41.4025 48.7618 40.8096 48.1689 40.0685 48.1689H27.9141C27.173 48.1689 26.5801 48.7618 26.5801 49.503C26.5801 50.2441 27.173 50.837 27.9141 50.837H32.7516V54.3L23.3327 63.719C22.8072 64.2445 22.8072 65.0799 23.3327 65.6054C23.5887 65.8615 23.939 65.9962 24.2759 65.9962C24.6128 65.9962 24.9631 65.8615 25.2192 65.6054L32.7516 58.073V64.6622C32.7516 65.4033 33.3445 65.9962 34.0856 65.9962C34.8268 65.9962 35.4197 65.4033 35.4197 64.6622V58.073L42.9117 65.565C43.1677 65.821 43.5181 65.9558 43.8549 65.9558C44.1918 65.9558 44.5422 65.821 44.7982 65.565C45.3237 65.0395 45.3237 64.2041 44.7982 63.6785L35.4197 54.3Z" fill="url(#paint1_linear_4_1345)"/>
<path d="M38.3571 20.1951H48.5442C49.2853 20.1951 49.8782 19.6022 49.8782 18.8611C49.8782 16.0449 48.8541 13.3364 46.9945 11.2343C44.8116 8.75495 41.6585 7.34009 38.3571 7.34009C37.616 7.34009 37.0231 7.93298 37.0231 8.6741V18.8611C37.0231 19.6022 37.616 20.1951 38.3571 20.1951ZM39.6912 10.1159C41.7259 10.4258 43.6124 11.4365 44.9868 12.9995C46.1187 14.2797 46.8463 15.8562 47.1024 17.5271H39.6912V10.1159Z" fill="url(#paint2_linear_4_1345)"/>
<path d="M32.6168 38.7366C40.4997 38.7366 46.9272 32.3225 46.9272 24.4263C46.9272 23.6851 46.3343 23.0922 45.5932 23.0922H33.9509V11.4634C33.9509 10.7223 33.358 10.1294 32.6168 10.1294C24.734 10.1294 18.3065 16.5434 18.3065 24.4397C18.3065 32.3225 24.7206 38.7366 32.6168 38.7366ZM31.2694 12.8648V24.4263C31.2694 25.1674 31.8623 25.7603 32.6034 25.7603H44.1648C43.5046 31.5545 38.5728 36.0686 32.6034 36.0686C26.1893 36.0686 20.9611 30.8538 20.9611 24.4263C20.9745 18.4704 25.4886 13.5385 31.2694 12.8648Z" fill="url(#paint3_linear_4_1345)"/>
<defs>
<linearGradient id="paint0_linear_4_1345" x1="20.8113" y1="45.3182" x2="24.2404" y2="-0.627993" gradientUnits="userSpaceOnUse">
<stop stop-color="#188DC1"/>
<stop offset="1" stop-color="#06BFE7"/>
</linearGradient>
<linearGradient id="paint1_linear_4_1345" x1="29.8486" y1="65.929" x2="31.4495" y2="47.7193" gradientUnits="userSpaceOnUse">
<stop stop-color="#188DC1"/>
<stop offset="1" stop-color="#06BFE7"/>
</linearGradient>
<linearGradient id="paint2_linear_4_1345" x1="41.0148" y1="20.1467" x2="42.4496" y2="7.07183" gradientUnits="userSpaceOnUse">
<stop stop-color="#188DC1"/>
<stop offset="1" stop-color="#06BFE7"/>
</linearGradient>
<linearGradient id="paint3_linear_4_1345" x1="27.1936" y1="38.6288" x2="30.3852" y2="9.5321" gradientUnits="userSpaceOnUse">
<stop stop-color="#188DC1"/>
<stop offset="1" stop-color="#06BFE7"/>
</linearGradient>
</defs>
</svg>
