<svg width="48" height="67" viewBox="0 0 48 67" fill="none" xmlns="http://www.w3.org/2000/svg">
<path d="M42.9669 47.8777C42.3851 47.8777 41.9137 48.3491 41.9137 48.9309V64.193H28.2128C27.631 64.193 27.1596 64.6644 27.1596 65.2462C27.1596 65.828 27.631 66.2994 28.2128 66.2994H42.9669C43.5487 66.2994 44.0201 65.828 44.0201 65.2462V48.9309C44.0201 48.3492 43.5487 47.8777 42.9669 47.8777Z" fill="url(#paint0_linear_6_12)"/>
<path d="M47.8193 44.3129L43.939 35.0006C43.7756 34.6081 43.3919 34.3525 42.9669 34.3525H5.03315C4.60808 34.3525 4.22444 34.6081 4.06099 35.0006L0.180747 44.3129C0.0452362 44.6379 0.081185 45.0093 0.276657 45.3022C0.471989 45.5953 0.800726 45.7712 1.15291 45.7712H3.97996V65.246C3.97996 65.8278 4.45137 66.2992 5.03315 66.2992H24C24.5818 66.2992 25.0532 65.8278 25.0532 65.246V40.6715L26.9081 45.1232C27.0715 45.5157 27.4552 45.7712 27.8802 45.7712H46.8471C47.1993 45.7712 47.5282 45.5953 47.7234 45.3022C47.9188 45.0093 47.9548 44.6379 47.8193 44.3129ZM5.73528 36.4588H22.4202L19.4176 43.6647H2.7327L5.73528 36.4588ZM6.08634 64.1928V45.7711H20.1199C20.545 45.7711 20.9286 45.5155 21.0921 45.123L22.9468 40.6715V64.1928H6.08634ZM28.5824 43.6647L25.5798 36.4588H42.2647L45.2673 43.6647H28.5824Z" fill="url(#paint1_linear_6_12)"/>
<path d="M16.9908 24.8913L17.5732 27.2343C17.6899 27.7038 18.1114 28.0334 18.5952 28.0334H29.4047C29.8885 28.0334 30.31 27.7036 30.4267 27.2343L31.0091 24.8913C34.8972 22.4738 37.294 18.1864 37.294 13.5934C37.2941 6.26305 31.3304 0.299316 24 0.299316C16.6697 0.299316 10.7059 6.26305 10.7059 13.5934C10.7059 18.1864 13.1027 22.4738 16.9908 24.8913ZM24 2.4057C30.1689 2.4057 35.1877 7.42451 35.1877 13.5934C35.1877 17.5871 33.0343 21.3064 29.5677 23.2995C29.3192 23.4424 29.1397 23.6803 29.0706 23.9584L28.5813 25.927H19.4188L18.9294 23.9584C18.8603 23.6803 18.6807 23.4423 18.4323 23.2995C14.9657 21.3064 12.8123 17.5871 12.8123 13.5934C12.8123 7.42451 17.8311 2.4057 24 2.4057Z" fill="url(#paint2_linear_6_12)"/>
<path d="M29.4047 30.1396H18.5952C18.0134 30.1396 17.542 30.6111 17.542 31.1928C17.542 31.7746 18.0134 32.246 18.5952 32.246H29.4047C29.9865 32.246 30.4579 31.7746 30.4579 31.1928C30.4579 30.6111 29.9865 30.1396 29.4047 30.1396Z" fill="url(#paint3_linear_6_12)"/>
<path d="M20.8716 23.0215C20.9907 23.5006 21.4204 23.8208 21.8928 23.8208C21.9769 23.8208 22.0624 23.8107 22.1476 23.7893C22.7121 23.649 23.0559 23.0778 22.9156 22.5131L21.984 18.7652H26.0158L25.0842 22.5131C24.9439 23.0778 25.2877 23.649 25.8522 23.7893C25.9374 23.8105 26.0231 23.8208 26.1071 23.8208C26.5795 23.8208 27.0093 23.5006 27.1283 23.0215L28.3848 17.9662C28.3862 17.9607 28.3867 17.9551 28.388 17.9496C28.3926 17.9294 28.3966 17.9089 28.4001 17.8882C28.4028 17.8722 28.4054 17.8563 28.4074 17.8405C28.4094 17.8238 28.4108 17.8069 28.412 17.7901C28.4136 17.77 28.4147 17.7499 28.4151 17.7298C28.4153 17.7239 28.416 17.718 28.416 17.7121C28.416 17.7038 28.415 17.6958 28.4147 17.6876C28.4143 17.6661 28.4133 17.6449 28.4115 17.6235C28.4102 17.6089 28.4085 17.5945 28.4068 17.58C28.4044 17.5607 28.4016 17.5417 28.3981 17.5227C28.3952 17.5063 28.3917 17.49 28.3879 17.4737C28.3841 17.4574 28.38 17.4414 28.3754 17.4254C28.3703 17.4073 28.3647 17.3896 28.3587 17.3719C28.3539 17.3581 28.349 17.3444 28.3436 17.3309C28.3363 17.3123 28.3287 17.2941 28.3205 17.276C28.3147 17.2633 28.3087 17.251 28.3025 17.2386C28.2935 17.2209 28.2842 17.2035 28.2743 17.1864C28.2671 17.1739 28.2595 17.1615 28.2518 17.1493C28.2418 17.1334 28.2314 17.118 28.2206 17.1028C28.2115 17.0898 28.2018 17.0771 28.192 17.0646C28.1816 17.0513 28.1709 17.0381 28.1598 17.0252C28.1483 17.0118 28.1364 16.9988 28.1241 16.986C28.1135 16.9748 28.1028 16.9639 28.0917 16.9533C28.0781 16.9402 28.064 16.9276 28.0497 16.9152C28.0385 16.9057 28.0273 16.8963 28.0157 16.887C28.0009 16.8752 27.9857 16.8638 27.9701 16.8529C27.9575 16.8439 27.9447 16.8353 27.9318 16.8269C27.9167 16.8172 27.9016 16.8079 27.886 16.7991C27.8708 16.7904 27.8555 16.7821 27.8399 16.7742C27.8259 16.7671 27.8116 16.7602 27.7971 16.7536C27.7788 16.7453 27.7602 16.7376 27.7413 16.7303C27.7284 16.7254 27.7156 16.7204 27.7024 16.7161C27.6817 16.7089 27.6605 16.7027 27.639 16.6969C27.6314 16.6947 27.6242 16.6919 27.6167 16.6901C27.611 16.6887 27.6054 16.6881 27.5998 16.6869C27.58 16.6824 27.5601 16.6786 27.5398 16.6751C27.523 16.6721 27.5061 16.6695 27.4893 16.6674C27.4741 16.6655 27.4588 16.6643 27.4434 16.663C27.4213 16.6613 27.3993 16.6601 27.3774 16.6596C27.3723 16.6596 27.3674 16.6589 27.3625 16.6589H20.6367C20.3126 16.6589 20.0066 16.8082 19.807 17.0635C19.6073 17.3187 19.5364 17.6516 19.6146 17.9663L20.8716 23.0215Z" fill="url(#paint4_linear_6_12)"/>
<defs>
<linearGradient id="paint0_linear_6_12" x1="32.395" y1="66.23" x2="34.6364" y2="47.5364" gradientUnits="userSpaceOnUse">
<stop stop-color="#188DC1"/>
<stop offset="1" stop-color="#06BFE7"/>
</linearGradient>
<linearGradient id="paint1_linear_6_12" x1="14.9423" y1="66.1788" x2="17.3413" y2="33.4705" gradientUnits="userSpaceOnUse">
<stop stop-color="#188DC1"/>
<stop offset="1" stop-color="#06BFE7"/>
</linearGradient>
<linearGradient id="paint2_linear_6_12" x1="18.9618" y1="27.9288" x2="22.1875" y2="-0.249904" gradientUnits="userSpaceOnUse">
<stop stop-color="#188DC1"/>
<stop offset="1" stop-color="#06BFE7"/>
</linearGradient>
<linearGradient id="paint3_linear_6_12" x1="21.5525" y1="32.2381" x2="21.5913" y2="30.0706" gradientUnits="userSpaceOnUse">
<stop stop-color="#188DC1"/>
<stop offset="1" stop-color="#06BFE7"/>
</linearGradient>
<linearGradient id="paint4_linear_6_12" x1="22.3261" y1="23.7938" x2="22.9769" y2="16.4797" gradientUnits="userSpaceOnUse">
<stop stop-color="#188DC1"/>
<stop offset="1" stop-color="#06BFE7"/>
</linearGradient>
</defs>
</svg>
